<svg version="1.1" id="Layer_1" xmlns="http://www.w3.org/2000/svg" xmlns:xlink="http://www.w3.org/1999/xlink" x="0px" y="0px"
	 width="100%" viewBox="0 0 1920 1080" enable-background="new 0 0 1920 1080" xml:space="preserve">
<path fill="#000000" opacity="1.000000" stroke="none" 
	d="
M1788.000000,1081.000000 
	C1192.000122,1081.000000 596.500183,1081.000000 1.000240,1081.000000 
	C1.000160,721.000183 1.000160,361.000336 1.000080,1.000385 
	C640.999695,1.000256 1280.999390,1.000256 1920.999268,1.000128 
	C1920.999512,360.999634 1920.999512,720.999268 1920.999756,1080.999512 
	C1876.833374,1081.000000 1832.666626,1081.000000 1788.000000,1081.000000 
M954.286865,472.243408 
	C945.646057,471.904083 937.005798,471.549561 928.364319,471.228333 
	C904.271912,470.332672 880.118347,467.940796 856.100159,468.906982 
	C817.191711,470.472137 802.080933,504.470642 805.881836,536.583923 
	C807.449097,534.116699 808.598450,532.448303 809.604858,530.697754 
	C813.276733,524.311035 816.984436,517.933228 823.976562,514.549438 
	C834.275757,509.565125 845.192444,506.232422 856.571350,505.870697 
	C880.205322,505.119415 903.862305,505.080048 927.510864,504.842560 
	C928.870544,504.828918 930.238770,505.661377 931.155762,506.664001 
	C921.878784,515.598633 911.182800,521.150269 897.928833,519.749817 
	C890.358032,518.949768 882.842529,517.590271 875.323242,516.354065 
	C871.385681,515.706726 867.493774,514.781616 863.581238,513.981995 
	C863.322693,514.481995 863.064148,514.981995 862.805603,515.481995 
	C864.799377,517.317200 866.687622,519.285278 868.804016,520.966064 
	C882.754395,532.045410 898.588196,539.806519 914.761719,546.980225 
	C923.131348,550.692566 931.803284,552.604309 940.962341,551.783386 
	C954.992737,550.525757 967.567688,546.195374 974.764709,533.008972 
	C979.608887,524.133423 983.512939,514.744812 988.789001,505.534241 
	C990.949158,505.470398 993.108887,505.373108 995.269470,505.347870 
	C1020.564697,505.052246 1045.871094,505.125580 1071.151489,504.350891 
	C1087.372925,503.853790 1103.097534,500.217133 1117.883789,493.181122 
	C1127.806519,488.459381 1129.329224,481.141266 1121.426392,473.609100 
	C1117.250854,469.629395 1112.454346,466.140381 1107.492798,463.174591 
	C1087.818970,451.414368 1066.385376,443.541077 1045.013306,435.573090 
	C1044.339111,435.321747 1043.514648,435.473602 1042.192993,435.410339 
	C1043.929199,438.494049 1045.479980,441.019012 1046.811890,443.654541 
	C1052.069702,454.058441 1049.972778,460.229095 1039.623535,465.738892 
	C1026.906250,472.509460 1013.288574,474.635345 999.059204,473.216705 
	C1003.663025,457.387390 1012.443726,444.250732 1025.511963,434.332092 
	C1029.286987,431.466919 1034.384766,429.587738 1039.114990,428.900696 
	C1048.104004,427.595001 1057.258057,427.306580 1066.357422,426.919556 
	C1073.065063,426.634277 1079.794556,426.863586 1086.514404,426.863586 
	C1086.584229,426.313293 1086.653931,425.763031 1086.723755,425.212738 
	C1086.134521,424.723022 1085.619629,424.062012 1084.945068,423.768982 
	C1072.754395,418.474121 1060.825928,412.384247 1048.267944,408.175018 
	C1032.374512,402.847839 1016.082886,403.372345 1000.760681,410.822571 
	C986.989258,417.518738 978.700745,429.641144 971.586975,442.664886 
	C966.172241,452.578156 960.676880,462.447357 954.286865,472.243408 
M1074.224243,594.031921 
	C1082.537354,583.413452 1078.036743,568.968323 1065.497192,567.302368 
	C1058.831299,566.416809 1051.950806,567.145508 1044.980225,567.145508 
	C1044.980225,582.402832 1044.980225,597.278809 1044.980225,612.660950 
	C1047.520020,612.505493 1049.702637,612.371948 1052.128784,612.223450 
	C1052.128784,608.466248 1051.979126,605.304932 1052.213501,602.172302 
	C1052.290894,601.136841 1053.146606,599.589722 1054.008667,599.277893 
	C1058.720581,597.573486 1062.965576,599.301514 1065.710693,603.709290 
	C1066.678955,605.263977 1067.820801,606.742676 1068.563721,608.399475 
	C1070.748047,613.270203 1074.338623,613.399292 1079.003906,611.899780 
	C1076.692993,608.327393 1074.773926,605.009338 1072.504150,601.951416 
	C1070.257446,598.924377 1070.352051,596.575378 1074.224243,594.031921 
M890.930176,598.692749 
	C891.434265,596.427612 892.134277,594.185974 892.408508,591.893372 
	C893.620972,581.757019 888.061768,571.472229 879.683350,568.115479 
	C864.329407,561.964050 850.313599,571.380615 849.102051,588.661560 
	C848.328125,599.701050 855.457581,609.922424 865.668762,612.413025 
	C876.241699,614.991821 886.328796,609.777405 890.930176,598.692749 
M1029.566772,607.057190 
	C1031.426758,603.773499 1033.799316,600.673035 1035.050781,597.171814 
	C1038.827759,586.603943 1034.015503,573.580322 1025.121216,568.895142 
	C1012.123474,562.048523 994.923218,568.866760 993.272217,586.295593 
	C992.370361,595.815613 996.139893,605.769775 1003.515869,610.101440 
	C1011.590271,614.843140 1021.037170,613.878601 1029.566772,607.057190 
M813.193970,567.003235 
	C810.503479,566.593750 809.803955,567.849976 809.848755,570.404358 
	C809.985779,578.221558 809.898071,586.042725 809.897949,593.862305 
	C809.897827,599.960022 809.897888,606.057739 809.897888,612.280151 
	C812.504578,612.280151 814.595825,612.280151 817.276978,612.280151 
	C817.276978,607.951477 817.276978,603.877808 817.276978,599.523804 
	C821.949463,599.283264 826.094116,599.346985 830.157959,598.804810 
	C839.536743,597.553589 843.570129,591.649292 843.089172,580.396484 
	C842.760193,572.698669 837.031860,567.363831 828.533936,567.064514 
	C823.714783,566.894714 818.885498,567.014099 813.193970,567.003235 
M1088.557007,567.095154 
	C1088.219238,567.786987 1087.589844,568.477661 1087.587036,569.170837 
	C1087.529663,583.270386 1087.543945,597.370178 1087.543945,611.675537 
	C1089.493042,611.675537 1091.597778,611.675537 1094.059204,611.675537 
	C1094.381958,607.529053 1094.695801,603.496826 1095.007812,599.486877 
	C1099.661499,599.238647 1103.852661,599.343079 1107.935791,598.728577 
	C1116.231201,597.479858 1121.370361,590.783936 1120.883423,582.420288 
	C1120.345459,573.180359 1114.694336,567.316467 1105.848755,567.058716 
	C1100.364380,566.898926 1094.871704,567.015076 1088.557007,567.095154 
M962.191528,610.158813 
	C969.332703,613.893372 976.530273,614.267944 983.659729,610.247192 
	C989.524597,606.939514 989.562622,605.383423 984.200806,601.118286 
	C975.497437,607.029907 969.175232,607.181580 963.659729,601.611084 
	C957.841675,595.734985 956.814026,585.953979 961.875305,579.709106 
	C963.865112,577.254150 966.720642,574.965942 969.651917,573.923523 
	C975.251770,571.932129 980.325623,574.144226 984.284302,578.272705 
	C989.026672,573.586792 988.927368,572.303528 984.112122,569.205322 
	C977.502075,564.952271 966.891174,565.381165 960.563416,570.157104 
	C947.828369,579.768860 948.325928,599.400024 962.191528,610.158813 
M911.139038,605.138367 
	C907.313293,605.345642 907.993958,602.498352 907.983582,600.303650 
	C907.931946,589.347717 907.960022,578.391357 907.960022,567.362915 
	C905.431641,567.362915 903.393188,567.362915 901.208252,567.362915 
	C901.208252,582.501953 901.208252,597.281250 901.208252,612.622986 
	C910.051392,612.622986 918.683899,612.720459 927.306458,612.471558 
	C928.164246,612.446777 929.674377,610.265137 929.602661,609.168152 
	C929.516235,607.845825 928.154358,605.598999 927.185791,605.511536 
	C922.224060,605.063721 917.211121,605.182190 911.139038,605.138367 
M942.550842,612.084595 
	C942.550842,597.222839 942.550842,582.361084 942.550842,567.295166 
	C940.440491,567.295166 938.377869,567.295166 936.053101,567.295166 
	C936.053101,582.427002 936.053101,597.266296 936.053101,612.372864 
	C938.211060,612.372864 940.016357,612.372864 942.550842,612.084595 
z"/>
<path fill="#F9F9FA" opacity="1.000000" stroke="none" 
	d="
M987.837585,505.585724 
	C983.512939,514.744812 979.608887,524.133423 974.764709,533.008972 
	C967.567688,546.195374 954.992737,550.525757 940.962341,551.783386 
	C931.803284,552.604309 923.131348,550.692566 914.761719,546.980225 
	C898.588196,539.806519 882.754395,532.045410 868.804016,520.966064 
	C866.687622,519.285278 864.799377,517.317200 862.805603,515.481995 
	C863.064148,514.981995 863.322693,514.481995 863.581238,513.981995 
	C867.493774,514.781616 871.385681,515.706726 875.323242,516.354065 
	C882.842529,517.590271 890.358032,518.949768 897.928833,519.749817 
	C911.182800,521.150269 921.878784,515.598633 931.679260,506.309540 
	C939.874329,494.748779 947.545837,483.542480 955.217346,472.336151 
	C960.676880,462.447357 966.172241,452.578156 971.586975,442.664886 
	C978.700745,429.641144 986.989258,417.518738 1000.760681,410.822571 
	C1016.082886,403.372345 1032.374512,402.847839 1048.267944,408.175018 
	C1060.825928,412.384247 1072.754395,418.474121 1084.945068,423.768982 
	C1085.619629,424.062012 1086.134521,424.723022 1086.723755,425.212738 
	C1086.653931,425.763031 1086.584229,426.313293 1086.514404,426.863586 
	C1079.794556,426.863586 1073.065063,426.634277 1066.357422,426.919556 
	C1057.258057,427.306580 1048.104004,427.595001 1039.114990,428.900696 
	C1034.384766,429.587738 1029.286987,431.466919 1025.511963,434.332092 
	C1012.443726,444.250732 1003.663025,457.387390 998.790283,473.815796 
	C994.960083,484.805176 991.398804,495.195435 987.837585,505.585724 
z"/>
<path fill="#4367A2" opacity="1.000000" stroke="none" 
	d="
M988.313293,505.559998 
	C991.398804,495.195435 994.960083,484.805176 998.801514,474.182037 
	C1013.288574,474.635345 1026.906250,472.509460 1039.623535,465.738892 
	C1049.972778,460.229095 1052.069702,454.058441 1046.811890,443.654541 
	C1045.479980,441.019012 1043.929199,438.494049 1042.192993,435.410339 
	C1043.514648,435.473602 1044.339111,435.321747 1045.013306,435.573090 
	C1066.385376,443.541077 1087.818970,451.414368 1107.492798,463.174591 
	C1112.454346,466.140381 1117.250854,469.629395 1121.426392,473.609100 
	C1129.329224,481.141266 1127.806519,488.459381 1117.883789,493.181122 
	C1103.097534,500.217133 1087.372925,503.853790 1071.151489,504.350891 
	C1045.871094,505.125580 1020.564697,505.052246 995.269470,505.347870 
	C993.108887,505.373108 990.949158,505.470398 988.313293,505.559998 
z"/>
<path fill="#4367A2" opacity="1.000000" stroke="none" 
	d="
M954.752075,472.289795 
	C947.545837,483.542480 939.874329,494.748779 931.902893,506.027557 
	C930.238770,505.661377 928.870544,504.828918 927.510864,504.842560 
	C903.862305,505.080048 880.205322,505.119415 856.571350,505.870697 
	C845.192444,506.232422 834.275757,509.565125 823.976562,514.549438 
	C816.984436,517.933228 813.276733,524.311035 809.604858,530.697754 
	C808.598450,532.448303 807.449097,534.116699 805.881836,536.583923 
	C802.080933,504.470642 817.191711,470.472137 856.100159,468.906982 
	C880.118347,467.940796 904.271912,470.332672 928.364319,471.228333 
	C937.005798,471.549561 945.646057,471.904083 954.752075,472.289795 
z"/>
<path fill="#F9F9FA" opacity="1.000000" stroke="none" 
	d="
M1073.951416,594.308838 
	C1070.352051,596.575378 1070.257446,598.924377 1072.504150,601.951416 
	C1074.773926,605.009338 1076.692993,608.327393 1079.003906,611.899780 
	C1074.338623,613.399292 1070.748047,613.270203 1068.563721,608.399475 
	C1067.820801,606.742676 1066.678955,605.263977 1065.710693,603.709290 
	C1062.965576,599.301514 1058.720581,597.573486 1054.008667,599.277893 
	C1053.146606,599.589722 1052.290894,601.136841 1052.213501,602.172302 
	C1051.979126,605.304932 1052.128784,608.466248 1052.128784,612.223450 
	C1049.702637,612.371948 1047.520020,612.505493 1044.980225,612.660950 
	C1044.980225,597.278809 1044.980225,582.402832 1044.980225,567.145508 
	C1051.950806,567.145508 1058.831299,566.416809 1065.497192,567.302368 
	C1078.036743,568.968323 1082.537354,583.413452 1073.951416,594.308838 
M1067.702637,575.558167 
	C1062.886841,574.956909 1058.052124,573.982117 1053.278687,574.222168 
	C1052.674805,574.252502 1052.384277,580.655884 1051.968018,584.108887 
	C1051.908936,584.598450 1051.959717,585.101135 1051.959961,585.597778 
	C1051.962646,592.647705 1051.962646,592.650635 1059.124268,592.431396 
	C1059.948853,592.406128 1060.778687,592.375061 1061.594360,592.262390 
	C1070.651367,591.011169 1073.766602,583.513306 1067.702637,575.558167 
z"/>
<path fill="#F9F9FA" opacity="1.000000" stroke="none" 
	d="
M890.837158,599.071594 
	C886.328796,609.777405 876.241699,614.991821 865.668762,612.413025 
	C855.457581,609.922424 848.328125,599.701050 849.102051,588.661560 
	C850.313599,571.380615 864.329407,561.964050 879.683350,568.115479 
	C888.061768,571.472229 893.620972,581.757019 892.408508,591.893372 
	C892.134277,594.185974 891.434265,596.427612 890.837158,599.071594 
M859.543945,579.266846 
	C858.812866,580.754700 857.895752,582.181152 857.381287,583.740479 
	C854.248169,593.235962 859.449036,603.837524 867.884277,605.308228 
	C875.191284,606.582275 881.373657,603.208191 883.968384,596.530090 
	C887.069763,588.547913 884.470520,579.348328 877.931335,575.162659 
	C872.527527,571.703735 865.345032,573.105957 859.543945,579.266846 
z"/>
<path fill="#F9F9FA" opacity="1.000000" stroke="none" 
	d="
M1029.299927,607.276733 
	C1021.037170,613.878601 1011.590271,614.843140 1003.515869,610.101440 
	C996.139893,605.769775 992.370361,595.815613 993.272217,586.295593 
	C994.923218,568.866760 1012.123474,562.048523 1025.121216,568.895142 
	C1034.015503,573.580322 1038.827759,586.603943 1035.050781,597.171814 
	C1033.799316,600.673035 1031.426758,603.773499 1029.299927,607.276733 
M1021.091797,604.147339 
	C1022.855408,602.411865 1024.956665,600.906860 1026.325195,598.901672 
	C1032.950317,589.194397 1026.993530,574.344849 1016.233032,573.421753 
	C1009.785767,572.868652 1005.067688,575.533325 1002.010986,581.454163 
	C998.818665,587.637390 999.667603,595.347351 1004.076050,600.646790 
	C1008.547729,606.022156 1014.122192,606.562012 1021.091797,604.147339 
z"/>
<path fill="#F9F9FA" opacity="1.000000" stroke="none" 
	d="
M813.627319,567.003235 
	C818.885498,567.014099 823.714783,566.894714 828.533936,567.064514 
	C837.031860,567.363831 842.760193,572.698669 843.089172,580.396484 
	C843.570129,591.649292 839.536743,597.553589 830.157959,598.804810 
	C826.094116,599.346985 821.949463,599.283264 817.276978,599.523804 
	C817.276978,603.877808 817.276978,607.951477 817.276978,612.280151 
	C814.595825,612.280151 812.504578,612.280151 809.897888,612.280151 
	C809.897888,606.057739 809.897827,599.960022 809.897949,593.862305 
	C809.898071,586.042725 809.985779,578.221558 809.848755,570.404358 
	C809.803955,567.849976 810.503479,566.593750 813.627319,567.003235 
M825.283020,592.427856 
	C830.209717,592.030518 835.080383,590.799622 835.610840,585.104858 
	C835.895630,582.047119 834.725830,576.876404 832.733032,575.991699 
	C828.456055,574.093140 823.221436,574.141663 818.373535,574.105469 
	C817.947021,574.102234 817.440674,579.329773 817.055908,582.139343 
	C816.921631,583.120117 817.044861,584.135803 817.046326,585.135498 
	C817.057312,592.422424 817.056946,592.422424 825.283020,592.427856 
z"/>
<path fill="#F9F9FA" opacity="1.000000" stroke="none" 
	d="
M1088.969971,567.051270 
	C1094.871704,567.015076 1100.364380,566.898926 1105.848755,567.058716 
	C1114.694336,567.316467 1120.345459,573.180359 1120.883423,582.420288 
	C1121.370361,590.783936 1116.231201,597.479858 1107.935791,598.728577 
	C1103.852661,599.343079 1099.661499,599.238647 1095.007812,599.486877 
	C1094.695801,603.496826 1094.381958,607.529053 1094.059204,611.675537 
	C1091.597778,611.675537 1089.493042,611.675537 1087.543945,611.675537 
	C1087.543945,597.370178 1087.529663,583.270386 1087.587036,569.170837 
	C1087.589844,568.477661 1088.219238,567.786987 1088.969971,567.051270 
M1109.067383,590.888611 
	C1110.037842,590.002014 1111.260864,589.273376 1111.932495,588.199768 
	C1114.137329,584.675781 1114.366211,581.005371 1111.890869,577.478577 
	C1109.444824,573.993652 1101.027466,571.557495 1096.415283,573.906311 
	C1094.866943,574.694885 1094.350708,578.593445 1094.313232,581.084839 
	C1094.116455,594.182373 1094.518066,594.397461 1109.067383,590.888611 
z"/>
<path fill="#F9F9FA" opacity="1.000000" stroke="none" 
	d="
M961.879761,609.977173 
	C948.325928,599.400024 947.828369,579.768860 960.563416,570.157104 
	C966.891174,565.381165 977.502075,564.952271 984.112122,569.205322 
	C988.927368,572.303528 989.026672,573.586792 984.284302,578.272705 
	C980.325623,574.144226 975.251770,571.932129 969.651917,573.923523 
	C966.720642,574.965942 963.865112,577.254150 961.875305,579.709106 
	C956.814026,585.953979 957.841675,595.734985 963.659729,601.611084 
	C969.175232,607.181580 975.497437,607.029907 984.200806,601.118286 
	C989.562622,605.383423 989.524597,606.939514 983.659729,610.247192 
	C976.530273,614.267944 969.332703,613.893372 961.879761,609.977173 
z"/>
<path fill="#F9F9FA" opacity="1.000000" stroke="none" 
	d="
M911.677612,605.120544 
	C917.211121,605.182190 922.224060,605.063721 927.185791,605.511536 
	C928.154358,605.598999 929.516235,607.845825 929.602661,609.168152 
	C929.674377,610.265137 928.164246,612.446777 927.306458,612.471558 
	C918.683899,612.720459 910.051392,612.622986 901.208252,612.622986 
	C901.208252,597.281250 901.208252,582.501953 901.208252,567.362915 
	C903.393188,567.362915 905.431641,567.362915 907.960022,567.362915 
	C907.960022,578.391357 907.931946,589.347717 907.983582,600.303650 
	C907.993958,602.498352 907.313293,605.345642 911.677612,605.120544 
z"/>
<path fill="#F9F9FA" opacity="1.000000" stroke="none" 
	d="
M942.186279,612.228760 
	C940.016357,612.372864 938.211060,612.372864 936.053101,612.372864 
	C936.053101,597.266296 936.053101,582.427002 936.053101,567.295166 
	C938.377869,567.295166 940.440491,567.295166 942.550842,567.295166 
	C942.550842,582.361084 942.550842,597.222839 942.186279,612.228760 
z"/>
<path fill="#000000" opacity="1.000000" stroke="none" 
	d="
M1068.018188,575.811523 
	C1073.766602,583.513306 1070.651367,591.011169 1061.594360,592.262390 
	C1060.778687,592.375061 1059.948853,592.406128 1059.124268,592.431396 
	C1051.962646,592.650635 1051.962646,592.647705 1051.959961,585.597778 
	C1051.959717,585.101135 1051.908936,584.598450 1051.968018,584.108887 
	C1052.384277,580.655884 1052.674805,574.252502 1053.278687,574.222168 
	C1058.052124,573.982117 1062.886841,574.956909 1068.018188,575.811523 
z"/>
<path fill="#000000" opacity="1.000000" stroke="none" 
	d="
M859.777405,578.963989 
	C865.345032,573.105957 872.527527,571.703735 877.931335,575.162659 
	C884.470520,579.348328 887.069763,588.547913 883.968384,596.530090 
	C881.373657,603.208191 875.191284,606.582275 867.884277,605.308228 
	C859.449036,603.837524 854.248169,593.235962 857.381287,583.740479 
	C857.895752,582.181152 858.812866,580.754700 859.777405,578.963989 
z"/>
<path fill="#000000" opacity="1.000000" stroke="none" 
	d="
M1020.711304,604.296936 
	C1014.122192,606.562012 1008.547729,606.022156 1004.076050,600.646790 
	C999.667603,595.347351 998.818665,587.637390 1002.010986,581.454163 
	C1005.067688,575.533325 1009.785767,572.868652 1016.233032,573.421753 
	C1026.993530,574.344849 1032.950317,589.194397 1026.325195,598.901672 
	C1024.956665,600.906860 1022.855408,602.411865 1020.711304,604.296936 
z"/>
<path fill="#000000" opacity="1.000000" stroke="none" 
	d="
M824.824829,592.430908 
	C817.056946,592.422424 817.057312,592.422424 817.046326,585.135498 
	C817.044861,584.135803 816.921631,583.120117 817.055908,582.139343 
	C817.440674,579.329773 817.947021,574.102234 818.373535,574.105469 
	C823.221436,574.141663 828.456055,574.093140 832.733032,575.991699 
	C834.725830,576.876404 835.895630,582.047119 835.610840,585.104858 
	C835.080383,590.799622 830.209717,592.030518 824.824829,592.430908 
z"/>
<path fill="#000000" opacity="1.000000" stroke="none" 
	d="
M1108.693970,591.074829 
	C1094.518066,594.397461 1094.116455,594.182373 1094.313232,581.084839 
	C1094.350708,578.593445 1094.866943,574.694885 1096.415283,573.906311 
	C1101.027466,571.557495 1109.444824,573.993652 1111.890869,577.478577 
	C1114.366211,581.005371 1114.137329,584.675781 1111.932495,588.199768 
	C1111.260864,589.273376 1110.037842,590.002014 1108.693970,591.074829 
z"/>
</svg>